<svg xmlns="http://www.w3.org/2000/svg" viewBox="0 0 31 31"><path d="M1 1h7v7h-7zM9 1h2v1h1v2h-1v2h-1v-2h-1v-1h1v-1h-1zM13 1h4v2h-1v-1h-2v1h1v1h-1v1h-1zM19 1h2v1h-1v1h-1zM23 1h7v7h-7zM2 2v5h5v-5zM24 2v5h5v-5zM3 3h3v3h-3zM18 3h1v1h1v2h-2v2h-1v-2h-1v-2h2zM20 3h2v1h-2zM25 3h3v3h-3zM21 5h1v5h-1zM9 6h1v2h-1zM14 6h2v2h-1v-1h-1zM11 7h1v1h-1zM13 7h1v1h-1zM19 7h1v2h-1zM14 8h1v2h-1zM1 9h1v1h-1zM3 9h1v2h-1zM7 9h2v1h-2zM16 9h2v1h1v1h1v-1h1v1h2v-1h1v-1h1v2h-1v1h-1v1h-1v-1h-4v2h-1v-1h-1v2h-2v1h-1v-4h1v1h1v-1h-1v-1h2v1h1v-2h-1zM27 9h1v3h-1v-1h-1v-1h1zM29 9h1v3h-1zM5 10h2v1h-2zM9 10h1v1h1v-1h1v1h1v1h-1v7h-1v-1h-1v-1h-1v-1h1v-1h1v-2h-1v-1h-1zM13 10h1v1h-1zM1 11h2v1h-2zM7 11h1v1h-1zM25 11h1v1h-1zM3 12h2v1h1v2h-1v1h2v1h-1v1h-1v-1h-1v1h-1v-2h-2v-3h1v1h1v1h1v-2h-1zM8 12h1v1h1v1h-3v-1h1zM26 12h1v2h1v1h-2zM28 12h1v1h-1zM20 13h2v1h-1v1h1v1h-1v1h1v1h-1v1h1v1h1v1h4v1h-1v1h3v-1h-1v-1h1v-2h1v5h-1v1h1v3h-3v2h-3v-1h-1v1h-3v-1h1v-1h1v-1h1v1h1v-1h1v-1h-3v1h-1v-1h-2v-1h2v-4h-2v-1h1v-1h-1v-1h1v-2h-1v-1h1zM23 13h2v2h1v1h1v2h1v1h-1v1h-4v-3h-1v-1h1zM29 13h1v4h-1v1h-1v-2h1zM7 15h1v1h-1zM16 15h1v1h-1zM14 16h1v2h-1zM1 17h1v1h-1zM7 17h2v2h-1v-1h-1zM17 17h1v2h-1v1h-1v1h2v3h-2v-1h-2v-2h1v-1h-1v1h-2v-1h1v-2h1v1h2v-1h1zM25 17v2h1v-2zM6 18h1v1h1v1h-1v1h-1v-1h-1v-1h1zM1 19h3v1h-3zM9 19h1v2h2v1h-2v2h-1zM18 19h1v1h-1zM4 20h1v1h-1zM1 21h2v1h-2zM5 21h1v1h-1zM7 21h1v1h-1zM12 22h1v1h-1zM22 22v3h3v-3zM1 23h7v7h-7zM13 23h1v1h-1zM19 23h1v1h-1zM23 23h1v1h-1zM2 24v5h5v-5zM10 24h2v2h-1v-1h-1zM14 24h1v3h1v-1h1v-1h1v2h2v1h-3v1h2v1h-8v-2h1v1h1v-1h1v-1h-2v-1h1v-1h1zM27 24v3h2v-1h-1v-2zM3 25h3v3h-3zM9 27h1v1h-1zM15 28v1h1v-1zM25 28v1h1v-1zM9 29h1v1h-1zM29 29h1v1h-1z"/></svg>